:FULLY-SPECIFIED
:FORCE-ALL-JOINTS-BE-3DOF
:DEGREES
510
root 5.90832 16.3105 -5.21198 -166.87 77.716 -171.803
lfemur -24.0891 -14.8843 -23.1446
ltibia 52.9228 0 0
lfoot -26.5022 -1.06441 0
ltoes 5.095 0 0
rfemur -57.8415 5.88024 4.60771
rtibia 57.8583 0 0
rfoot 11.9388 8.25978 0
rtoes -17.7955 0 0
lowerback 8.92938 0.424653 -0.771833
upperback 1.48694 0.700642 3.16405
thorax -3.51476 0.40941 3.63827
lowerneck -8.44211 -12.5884 -4.20111
upperneck 11.8574 -16.7388 2.78371
head 5.54265 -8.15377 0.235476
lclavicle 4.0171e-15 3.74377e-14 0
lhumerus -46.8051 -34.9137 118.325
lradius 56.9307 0 0
lwrist 6.30024 0 0
lhand 6.10902 -0.951327 0
lfingers 7.12502 0 0
lthumb 31.4266 26.3631 0
rclavicle 4.0171e-15 3.74377e-14 0
rhumerus -12.6302 42.906 -71.7385
rradius 118.539 0 0
rwrist -21.6689 0 0
rhand 24.8317 -13.2013 0
rfingers 7.12502 0 0
rthumb 48.9476 -754.485 0
511
root 5.96672 16.2874 -5.15555 -168.043 76.4073 -172.918
lfemur -23.9879 -14.2798 -23.2887
ltibia 53.5773 0 0
lfoot -26.6901 0.0509378 0
ltoes 3.79852 0 0
rfemur -57.6022 5.62733 4.18057
rtibia 56.391 0 0
rfoot 12.48 8.1006 0
rtoes -18.128 0 0
lowerback 9.15421 0.522619 -0.718044
upperback 1.59823 0.852567 3.37607
thorax -3.53559 0.488577 3.81193
lowerneck -8.32063 -12.8774 -4.43771
upperneck 12.0836 -17.1192 2.90326
head 5.63418 -8.33662 0.268582
lclavicle 6.95746e-15 4.21423e-14 0
lhumerus -46.544 -34.937 118.443
lradius 57.0057 0 0
lwrist 6.49292 0 0
lhand 5.64779 -1.22708 0
lfingers 7.12502 0 0
lthumb 30.9876 26.1768 0
rclavicle 6.95746e-15 4.21423e-14 0
rhumerus -9.60124 41.9555 -69.1551
rradius 121.009 0 0
rwrist -27.4629 0 0
rhand 27.9175 -13.5236 0
rfingers 7.12502 0 0
rthumb 51.8253 -753.732 0
512
root 6.02414 16.2434 -5.10214 -168.41 75.0257 -173.471
lfemur -24.4529 -13.7146 -23.3151
ltibia 54.6289 0 0
lfoot -26.9082 0.818383 0
ltoes 2.7567 0 0
rfemur -57.2155 5.13565 3.61243
rtibia 54.9748 0 0
rfoot 12.5954 8.24896 0
rtoes -19.2778 0 0
lowerback 9.20951 0.537771 -0.551184
upperback 1.68302 0.910142 3.59667
thorax -3.48393 0.521198 3.94167
lowerneck -8.192 -13.1057 -4.61884
upperneck 12.2021 -17.4228 3.01459
head 5.6898 -8.48162 0.299258
lclavicle 2.74985e-15 3.1938e-14 0
lhumerus -46.3339 -34.5302 118.297
lradius 57.228 0 0
lwrist 7.09493 0 0
lhand 4.39733 -1.63376 0
lfingers 7.12502 0 0
lthumb 29.7918 25.9602 0
rclavicle 2.74985e-15 3.1938e-14 0
rhumerus -7.40856 39.4245 -68.5853
rradius 122.595 0 0
rwrist -30.6391 0 0
rhand 26.8894 -13.2507 0
rfingers 7.12502 0 0
rthumb 50.8812 -753.929 0
513
root 6.08156 16.1995 -5.04872 -168.776 73.6441 -174.023
lfemur -24.9178 -13.1494 -23.3415
ltibia 55.6804 0 0
lfoot -27.1263 1.58583 0
ltoes 1.71489 0 0
rfemur -56.8288 4.64397 3.04429
rtibia 53.5585 0 0
rfoot 12.7108 8.39732 0
rtoes -20.4276 0 0
lowerback 9.26481 0.552924 -0.384324
upperback 1.76781 0.967718 3.81726
thorax -3.43226 0.553819 4.0714
lowerneck -8.06337 -13.334 -4.79997
upperneck 12.3206 -17.7263 3.12592
head 5.74543 -8.62663 0.329935
lclavicle -1.45776e-15 2.17338e-14 0
lhumerus -46.1238 -34.1234 118.151
lradius 57.4504 0 0
lwrist 7.69695 0 0
lhand 3.14687 -2.04044 0
lfingers 7.12502 0 0
lthumb 28.5959 25.7436 0
rclavicle -1.45776e-15 2.17338e-14 0
rhumerus -5.21587 36.8936 -68.0155
rradius 124.181 0 0
rwrist -33.8154 0 0
rhand 25.8613 -12.9777 0
rfingers 7.12502 0 0
rthumb 49.9371 -754.126 0
514
root 6.13898 16.1555 -4.99531 -169.143 72.2625 -174.576
lfemur -25.3828 -12.5842 -23.368
ltibia 56.732 0 0
lfoot -27.3443 2.35327 0
ltoes 0.67307 0 0
rfemur -56.4421 4.15229 2.47615
rtibia 52.1423 0 0
rfoot 12.8262 8.54567 0
rtoes -21.5774 0 0
lowerback 9.32012 0.568076 -0.217465
upperback 1.85261 1.02529 4.03786
thorax -3.3806 0.58644 4.20114
lowerneck -7.93474 -13.5622 -4.9811
upperneck 12.4391 -18.0299 3.23726
head 5.80105 -8.77163 0.360611
lclavicle -5.66537e-15 1.15295e-14 0
lhumerus -45.9136 -33.7166 118.005
lradius 57.6727 0 0
lwrist 8.29896 0 0
lhand 1.89641 -2.44712 0
lfingers 7.12502 0 0
lthumb 27.4001 25.5269 0
rclavicle -5.66537e-15 1.15295e-14 0
rhumerus -3.02319 34.3626 -67.4457
rradius 125.768 0 0
rwrist -36.9916 0 0
rhand 24.8331 -12.7048 0
rfingers 7.12502 0 0
rthumb 48.993 -754.322 0
515
root 6.19639 16.1115 -4.94189 -169.51 70.8809 -175.128
lfemur -25.8478 -12.019 -23.3944
ltibia 57.7836 0 0
lfoot -27.5624 3.12072 0
ltoes -0.368747 0 0
rfemur -56.0554 3.66061 1.90801
rtibia 50.7261 0 0
rfoot 12.9417 8.69403 0
rtoes -22.7271 0 0
lowerback 9.37542 0.583229 -0.0506047
upperback 1.9374 1.08287 4.25846
thorax -3.32893 0.619061 4.33088
lowerneck -7.80611 -13.7905 -5.16224
upperneck 12.5576 -18.3335 3.34859
head 5.85667 -8.91663 0.391288
lclavicle -9.87298e-15 1.32523e-15 0
lhumerus -45.7035 -33.3098 117.858
lradius 57.8951 0 0
lwrist 8.90097 0 0
lhand 0.64595 -2.85381 0
lfingers 7.12502 0 0
lthumb 26.2042 25.3103 0
rclavicle -9.87298e-15 1.32523e-15 0
rhumerus -0.8305 31.8316 -66.8758
rradius 127.354 0 0
rwrist -40.1678 0 0
rhand 23.805 -12.4318 0
rfingers 7.12502 0 0
rthumb 48.0488 -754.519 0
516
root 6.25381 16.0676 -4.88848 -169.876 69.4993 -175.68
lfemur -26.3127 -11.4538 -23.4208
ltibia 58.8351 0 0
lfoot -27.7805 3.88816 0
ltoes -1.41056 0 0
rfemur -55.6687 3.16893 1.33987
rtibia 49.3098 0 0
rfoot 13.0571 8.84239 0
rtoes -23.8769 0 0
lowerback 9.43072 0.598382 0.116255
upperback 2.02219 1.14044 4.47905
thorax -3.27726 0.651682 4.46061
lowerneck -7.67748 -14.0188 -5.34337
upperneck 12.6761 -18.637 3.45992
head 5.9123 -9.06164 0.421965
lclavicle -1.40806e-14 -8.87903e-15 0
lhumerus -45.4934 -32.903 117.712
lradius 58.1174 0 0
lwrist 9.50299 0 0
lhand -0.60451 -3.26049 0
lfingers 7.12502 0 0
lthumb 25.0084 25.0937 0
rclavicle -1.40806e-14 -8.87903e-15 0
rhumerus 1.36219 29.3007 -66.306
rradius 128.94 0 0
rwrist -43.3441 0 0
rhand 22.7769 -12.1588 0
rfingers 7.12502 0 0
rthumb 47.1047 -754.716 0
517
root 6.31123 16.0236 -4.83506 -170.243 68.1177 -176.233
lfemur -26.7777 -10.8886 -23.4472
ltibia 59.8867 0 0
lfoot -27.9986 4.65561 0
ltoes -2.45238 0 0
rfemur -55.282 2.67725 0.771729
rtibia 47.8936 0 0
rfoot 13.1725 8.99075 0
rtoes -25.0267 0 0
lowerback 9.48602 0.613534 0.283115
upperback 2.10698 1.19802 4.69965
thorax -3.2256 0.684303 4.59035
lowerneck -7.54885 -14.2471 -5.5245
upperneck 12.7946 -18.9406 3.57125
head 5.96792 -9.20664 0.452641
lclavicle -1.82882e-14 -1.90833e-14 0
lhumerus -45.2833 -32.4962 117.566
lradius 58.3398 0 0
lwrist 10.105 0 0
lhand -1.85497 -3.66717 0
lfingers 7.12502 0 0
lthumb 23.8125 24.8771 0
rclavicle -1.82882e-14 -1.90833e-14 0
rhumerus 3.55487 26.7697 -65.7362
rradius 130.526 0 0
rwrist -46.5203 0 0
rhand 21.7488 -11.8859 0
rfingers 7.12502 0 0
rthumb 46.1606 -754.913 0
518
root 6.37528 15.9587 -4.77999 -170.647 66.8877 -176.46
lfemur -27.1633 -10.2517 -23.3717
ltibia 61.3169 0 0
lfoot -28.1374 4.75688 0
ltoes -3.04722 0 0
rfemur -54.4313 2.66173 0.110103
rtibia 47.0243 0 0
rfoot 13.3461 9.13123 0
rtoes -26.1124 0 0
lowerback 9.77718 0.637519 0.513986
upperback 2.3718 1.29723 4.95354
thorax -3.1195 0.744801 4.71363
lowerneck -7.39296 -14.4463 -5.66519
upperneck 12.8018 -19.213 3.7198
head 5.98754 -9.33515 0.496032
lclavicle -1.57703e-14 -1.53727e-14 0
lhumerus -45.1168 -32.008 117.276
lradius 58.6137 0 0
lwrist 11.0494 0 0
lhand -3.47164 -4.07391 0
lfingers 7.12502 0 0
lthumb 22.2581 24.6254 0
rclavicle -1.57703e-14 -1.53727e-14 0
rhumerus 5.08224 24.7844 -66.5992
rradius 131.331 0 0
rwrist -46.6256 0 0
rhand 16.3562 -12.7063 0
rfingers 7.12502 0 0
rthumb 41.0337 -756.797 0
519
root 6.43934 15.8937 -4.72492 -171.051 65.6577 -176.687
lfemur -27.5489 -9.61485 -23.2962
ltibia 62.747 0 0
lfoot -28.2763 4.85815 0
ltoes -3.64206 0 0
rfemur -53.5806 2.6462 -0.551524
rtibia 46.155 0 0
rfoot 13.5198 9.2717 0
rtoes -27.1981 0 0
lowerback 10.0683 0.661503 0.744857
upperback 2.63662 1.39645 5.20742
thorax -3.0134 0.805299 4.83692
lowerneck -7.23707 -14.6456 -5.80588
upperneck 12.8089 -19.4854 3.86834
head 6.00716 -9.46366 0.539422
lclavicle -1.32523e-14 -1.1662e-14 0
lhumerus -44.9503 -31.5199 116.987
lradius 58.8876 0 0
lwrist 11.9938 0 0
lhand -5.08831 -4.48065 0
lfingers 7.12502 0 0
lthumb 20.7036 24.3736 0
rclavicle -1.32523e-14 -1.1662e-14 0
rhumerus 6.60961 22.799 -67.4623
rradius 132.136 0 0
rwrist -46.7309 0 0
rhand 10.9636 -13.5267 0
rfingers 7.12502 0 0
rthumb 35.9068 -758.68 0
520
root 6.5034 15.8288 -4.66985 -171.455 64.4278 -176.915
lfemur -27.9345 -8.97798 -23.2206
ltibia 64.1772 0 0
lfoot -28.4151 4.95942 0
ltoes -4.2369 0 0
rfemur -52.7298 2.63068 -1.21315
rtibia 45.2858 0 0
rfoot 13.6934 9.41218 0
rtoes -28.2838 0 0
lowerback 10.3595 0.685488 0.975727
upperback 2.90144 1.49566 5.46131
thorax -2.9073 0.865797 4.9602
lowerneck -7.08118 -14.8449 -5.94657
upperneck 12.8161 -19.7578 4.01689
head 6.02678 -9.59218 0.582812
lclavicle -1.07344e-14 -7.95138e-15 0
lhumerus -44.7837 -31.0317 116.697
lradius 59.1615 0 0
lwrist 12.9382 0 0
lhand -6.70498 -4.88739 0
lfingers 7.12502 0 0
lthumb 19.1491 24.1219 0
rclavicle -1.07344e-14 -7.95138e-15 0
rhumerus 8.13698 20.8137 -68.3253
rradius 132.94 0 0
rwrist -46.8362 0 0
rhand 5.571 -14.3471 0
rfingers 7.12502 0 0
rthumb 30.7799 -760.564 0
521
root 6.56745 15.7639 -4.61477 -171.859 63.1978 -177.142
lfemur -28.3201 -8.3411 -23.1451
ltibia 65.6074 0 0
lfoot -28.5539 5.06069 0
ltoes -4.83173 0 0
rfemur -51.8791 2.61516 -1.87478
rtibia 44.4165 0 0
rfoot 13.867 9.55266 0
rtoes -29.3694 0 0
lowerback 10.6507 0.709472 1.2066
upperback 3.16625 1.59487 5.7152
thorax -2.8012 0.926294 5.08348
lowerneck -6.9253 -15.0441 -6.08727
upperneck 12.8233 -20.0303 4.16544
head 6.04639 -9.72069 0.626203
lclavicle -8.21643e-15 -4.24073e-15 0
lhumerus -44.6172 -30.5435 116.407
lradius 59.4353 0 0
lwrist 13.8825 0 0
lhand -8.32166 -5.29414 0
lfingers 7.12502 0 0
lthumb 17.5947 23.8702 0
rclavicle -8.21643e-15 -4.24073e-15 0
rhumerus 9.66436 18.8284 -69.1883
rradius 133.745 0 0
rwrist -46.9416 0 0
rhand 0.1784 -15.1675 0
rfingers 7.12502 0 0
rthumb 25.653 -762.448 0
